<svg width="25" height="25" viewBox="0 0 25 25" fill="none" xmlns="http://www.w3.org/2000/svg">
<path d="M18.0664 6.66797C16.5527 5.25195 14.5508 4.42188 12.4512 4.42188C8.69141 4.4707 5.41992 7.05859 4.54102 10.623C4.44336 10.916 4.19922 11.0625 3.95508 11.0625H1.17188C0.78125 11.0625 0.488281 10.7695 0.585938 10.3789C1.61133 4.76367 6.54297 0.515625 12.5 0.515625C15.7227 0.515625 18.6523 1.83398 20.8496 3.88477L22.6074 2.12695C23.3398 1.39453 24.6094 1.93164 24.6094 2.95703V9.5C24.6094 10.1836 24.0723 10.6719 23.4375 10.6719H16.8457C15.8203 10.6719 15.2832 9.45117 16.0156 8.71875L18.0664 6.66797ZM1.5625 14.5781H8.10547C9.13086 14.5781 9.66797 15.8477 8.93555 16.5801L6.88477 18.6309C8.39844 20.0469 10.4004 20.877 12.5 20.877C16.2598 20.8281 19.5312 18.2402 20.4102 14.6758C20.5078 14.3828 20.752 14.2363 20.9961 14.2363H23.7793C24.1699 14.2363 24.4629 14.5293 24.3652 14.9199C23.3398 20.5352 18.4082 24.7344 12.5 24.7344C9.22852 24.7344 6.29883 23.4648 4.10156 21.4141L2.34375 23.1719C1.61133 23.9043 0.390625 23.3672 0.390625 22.3418V15.75C0.390625 15.1152 0.878906 14.5781 1.5625 14.5781Z" fill="#FF151F"/>
</svg>
