<svg width="21" height="21" viewBox="0 0 21 21" fill="none" xmlns="http://www.w3.org/2000/svg">
<path d="M6.32227 6.62109C5.10156 7.8418 3.09961 7.8418 1.87891 6.62109C0.658203 5.40039 0.658203 3.39844 1.87891 2.17773C3.09961 0.957031 5.10156 0.957031 6.32227 2.17773C7.54297 3.39844 7.54297 5.40039 6.32227 6.62109ZM18.8223 14.6777C20.043 15.8984 20.043 17.9004 18.8223 19.1211C17.6016 20.3418 15.5996 20.3418 14.3789 19.1211C13.1582 17.9004 13.1582 15.8984 14.3789 14.6777C15.5996 13.457 17.6016 13.457 18.8223 14.6777ZM18.7246 3.39844C19.3105 3.98438 19.3105 5.00977 18.7246 5.5957L5.29688 19.0234C4.71094 19.6094 3.68555 19.6094 3.09961 19.0234L1.97656 17.9004C1.39062 17.3145 1.39062 16.2891 1.97656 15.7031L15.4043 2.27539C15.9902 1.68945 17.0156 1.68945 17.6016 2.27539L18.7246 3.39844Z" fill="#FF151F"/>
</svg>
