<svg width="20" height="21" viewBox="0 0 20 21" fill="none" xmlns="http://www.w3.org/2000/svg">
<g clip-path="url(#clip0_203_460)">
<path d="M17.5 3.5H2.49998C1.5795 3.5 0.833313 4.2835 0.833313 5.25V15.75C0.833313 16.7165 1.5795 17.5 2.49998 17.5H17.5C18.4205 17.5 19.1666 16.7165 19.1666 15.75V5.25C19.1666 4.2835 18.4205 3.5 17.5 3.5Z" stroke="#FF151F" stroke-width="2" stroke-linecap="round" stroke-linejoin="round"/>
<path d="M0.833313 7.19446H19.1666" stroke="#FF151F" stroke-width="2" stroke-linecap="round" stroke-linejoin="round"/>
<path d="M8.36981 10.3854C7.97919 10.776 7.33856 10.776 6.94794 10.3854C6.55731 9.99475 6.55731 9.35413 6.94794 8.9635C7.33856 8.57288 7.97919 8.57288 8.36981 8.9635C8.76044 9.35413 8.76044 9.99475 8.36981 10.3854ZM12.3698 12.9635C12.7604 13.3541 12.7604 13.9948 12.3698 14.3854C11.9792 14.776 11.3386 14.776 10.9479 14.3854C10.5573 13.9948 10.5573 13.3541 10.9479 12.9635C11.3386 12.5729 11.9792 12.5729 12.3698 12.9635ZM12.3386 9.35413C12.5261 9.54163 12.5261 9.86975 12.3386 10.0573L8.04169 14.3541C7.85419 14.5416 7.52606 14.5416 7.33856 14.3541L6.97919 13.9948C6.79169 13.8073 6.79169 13.4791 6.97919 13.2916L11.2761 8.99475C11.4636 8.80725 11.7917 8.80725 11.9792 8.99475L12.3386 9.35413Z" fill="#FF151F"/>
</g>
<defs>
<clipPath id="clip0_203_460">
<rect width="20" height="21" fill="white"/>
</clipPath>
</defs>
</svg>
