<svg width="128" height="128" viewBox="0 0 128 128" fill="none" xmlns="http://www.w3.org/2000/svg">
<path fill-rule="evenodd" clip-rule="evenodd" d="M27.9285 50.046C34.5328 49.8188 41.1965 50.4151 47.6014 52.2349C50.7706 53.1745 53.9066 54.4058 56.6984 56.3159C58.486 57.5833 60.219 59.1786 61.038 61.383C61.7193 63.1511 61.4487 65.2394 60.4896 66.8243C59.1293 69.1474 56.9334 70.7014 54.7209 71.9378C49.427 74.7798 43.5443 76.0162 37.7116 76.6874C30.9434 77.263 24.0851 77.1055 17.4072 75.6936C13.3216 74.8159 9.25501 73.5356 5.60862 71.3002C3.71658 70.1128 1.8839 68.6183 0.758643 66.5378C-0.0936051 64.9916 -0.245538 63.0118 0.393055 61.3468C1.0269 59.6122 2.27797 58.2493 3.62637 57.1419C5.98845 55.2369 8.72799 53.9695 11.5079 52.9732C16.8113 51.1146 22.3782 50.3377 27.9285 50.046ZM18.9526 52.7021C14.9335 53.6056 10.8835 54.9065 7.45793 57.4414C5.68459 58.7733 4.00621 60.6705 3.76406 63.1073C3.60738 65.2575 4.81335 67.2063 6.24722 68.5615C8.60692 70.7995 11.5672 72.0927 14.5109 73.1355C14.7531 72.578 14.9976 72.0204 15.2516 71.468C17.3217 71.6513 19.3775 72.0488 21.4595 72.0875C24.0803 72.1288 26.713 72.1701 29.3196 71.8165C31.328 71.5713 33.4218 71.3906 35.2426 70.3503C36.1352 69.8521 36.7928 68.8558 36.8427 67.7536C36.9448 66.9146 36.5863 66.0189 36.883 65.2213C37.6071 64.5141 38.4475 63.9384 39.2807 63.3938C41.0161 63.3602 42.7586 63.5538 44.4939 63.6803C44.3396 64.2404 44.2779 64.8625 43.9598 65.3452C43.0221 65.7092 41.9633 65.6447 41.0826 66.1867C42.2126 67.2063 43.4209 68.386 43.6678 70.0483C43.9859 71.5687 43.3592 73.0787 42.4666 74.2197C45.7141 73.6027 48.8952 72.467 51.8294 70.8253C53.5197 69.8392 55.1458 68.6105 56.2925 66.9095C57.3773 65.2471 57.7501 62.9343 56.8622 61.0732C55.6444 58.3371 53.1565 56.5973 50.7066 55.335C47.6252 53.7759 44.3016 52.8699 40.9591 52.2788C41.1775 53.2881 41.3651 54.318 41.3057 55.3608C41.2867 57.1135 40.5247 58.7346 39.6036 60.1285C37.0302 63.8636 33.2533 66.6359 29.0704 67.7148C24.9539 68.8274 20.669 69.0184 16.4505 68.7138C16.6143 67.8078 17.0534 67.0101 17.3715 66.1661C19.2897 61.4552 21.2126 56.7444 23.1379 52.0362C21.7254 52.0981 20.3437 52.4543 18.9526 52.7021ZM19.6672 66.1144C21.5236 65.6911 23.107 64.4134 24.4079 62.9627C25.8964 61.2436 27.157 59.2921 28.1564 57.1987C28.6882 56.0294 29.1914 54.6484 28.7736 53.3552C28.1422 52.0413 26.5611 52.2014 25.4074 52.1601C23.4275 56.778 21.6185 61.4811 19.6672 66.1144ZM68.3355 56.2075C69.278 55.9468 70.3605 56.1791 71.3575 56.0991C71.3623 60.1078 71.367 64.1165 71.3552 68.1253C73.9357 68.1537 76.5209 68.084 79.099 68.1614C79.3103 69.0648 79.1156 70.0999 79.1916 71.055C75.5642 71.0963 71.9344 71.0989 68.307 71.0782C68.3379 66.1222 68.2785 61.161 68.3355 56.2075ZM85.6725 58.8352C86.0642 57.9111 86.3989 56.9561 86.8784 56.0784C87.8731 56.1146 88.8678 56.0991 89.8649 56.0991C91.9302 61.0939 94.0098 66.0809 96.049 71.086C94.995 71.0757 93.9386 71.0782 92.8845 71.086C92.4952 70.1206 92.1035 69.1552 91.7189 68.1846C89.4732 68.1614 87.2274 68.1924 84.984 68.1666C84.5615 69.1191 84.1674 70.0844 83.8232 71.0705C82.7525 71.1944 81.6724 71.1763 80.6017 71.086C82.3062 67.0102 83.9775 62.9188 85.6725 58.8378V58.8352ZM86.0428 65.2058C87.5788 65.2058 89.1171 65.211 90.6554 65.1981C89.8767 63.2002 89.1147 61.192 88.3313 59.1966C87.5479 61.1894 86.793 63.1976 86.0428 65.2058ZM98.0835 56.0991C100.32 56.1197 102.558 56.0707 104.795 56.1223C106.85 56.1894 109.077 56.7418 110.516 58.4558C112.014 60.1698 112.28 62.7123 112.038 64.9632C111.843 67.1134 110.67 69.1913 108.849 70.1387C107.154 71.0215 105.224 71.1195 103.375 71.0808C101.609 71.1996 99.8402 71.0395 98.0716 71.0757C98.093 66.0835 98.0716 61.0913 98.0835 56.0991ZM101.084 59.0624C101.077 62.0877 101.077 65.1129 101.084 68.1382C103.014 68.0375 105.063 68.3886 106.881 67.5006C109.654 66.1609 109.709 61.0913 106.941 59.7129C105.113 58.7759 103.033 59.1347 101.084 59.0624ZM112.588 71.1505C114.497 66.0757 116.712 61.13 118.727 56.0991C119.734 56.1017 120.74 56.1094 121.747 56.0862C123.91 61.0319 125.868 66.0861 128 71.0498C126.929 71.0498 125.856 71.197 124.788 71.0653C124.42 70.0922 124.014 69.1371 123.63 68.1691C121.377 68.1795 119.121 68.1562 116.869 68.1795C116.47 69.132 116.154 70.1283 115.684 71.0421C114.68 71.2873 113.614 70.9698 112.588 71.1505ZM117.977 65.2033C119.508 65.211 121.042 65.2162 122.576 65.2033C121.823 63.2002 121.037 61.21 120.266 59.2147C119.468 61.1971 118.704 63.195 117.977 65.2058V65.2033Z" fill="#4C5865"/>
</svg>
